<svg width="19" height="23" viewBox="0 0 19 23" fill="none" xmlns="http://www.w3.org/2000/svg">
<path d="M19 22.3922C19 22.7603 18.7888 23 18.4284 23H0.512965C0.22412 22.9698 0.0341333 22.7874 0 22.503V0.559639C0 0.257932 0.20802 0 0.530676 0H13.9376C14.1267 0 14.2609 0.0620421 14.3782 0.19337L18.809 4.52687C18.9218 4.6371 18.9994 4.75898 18.9994 4.93219V22.3919L19 22.3922ZM14.0549 5.46065C13.6884 5.51388 13.4305 5.28398 13.396 4.94448L13.3925 1.06857L1.10096 1.06983L1.10289 21.9302L17.8997 21.9264L17.9007 5.46317L14.0549 5.46128V5.46065ZM17.1053 4.38043L14.5037 1.8389L14.4941 4.39145L17.1053 4.38043Z" fill="white"/>
<path d="M11.8014 19.2394C11.5889 19.2397 11.4562 19.1877 11.3223 19.0567L9.37731 17.1542L8.01617 19.4504C7.91538 19.6204 7.67162 19.6907 7.50675 19.6721C7.30581 19.6494 7.16831 19.5297 7.06173 19.3493L5.50125 16.707L3.97331 19.2778C3.821 19.5338 3.44199 19.5483 3.22398 19.4C2.96734 19.2252 2.9229 18.9184 3.08101 18.6508L5.03176 15.3474C5.13899 15.166 5.33767 15.0882 5.5209 15.091C5.72022 15.0942 5.88477 15.206 5.9891 15.3824L7.57147 18.058L8.76614 16.0387C8.86113 15.8777 9.01119 15.7763 9.17573 15.7524C9.36669 15.7244 9.53478 15.7908 9.67356 15.9266L11.9611 18.1651L15.0296 18.1686C15.3368 18.1689 15.5506 18.4205 15.559 18.6895C15.5667 18.943 15.3648 19.2327 15.0611 19.2334L11.8017 19.239L11.8014 19.2394Z" fill="white"/>
<path d="M14.7858 12.7341L4.22898 12.736C3.92823 12.736 3.73019 12.4295 3.74275 12.1795C3.75531 11.9294 3.97363 11.663 4.27568 11.663L14.6982 11.6617C15.0019 11.6617 15.2234 11.8866 15.2556 12.1571C15.2821 12.3804 15.104 12.7344 14.7862 12.7344L14.7858 12.7341Z" fill="white"/>
<path d="M14.7865 8.03178C15.1059 8.03178 15.2814 8.37978 15.2547 8.60937C15.2209 8.90195 14.9806 9.1035 14.6648 9.1035L4.30723 9.10287C3.9981 9.10287 3.78074 8.88147 3.74307 8.60937C3.71216 8.38671 3.89602 8.03241 4.19711 8.03241L14.7865 8.03178Z" fill="white"/>
<path d="M8.85984 5.44995L4.27278 5.45184C3.98297 5.45184 3.7743 5.215 3.745 4.964C3.71763 4.72937 3.90118 4.38988 4.19517 4.38988L8.91909 4.38799C9.21244 4.38799 9.39374 4.69473 9.38408 4.93944C9.37442 5.18414 9.17219 5.44995 8.85984 5.45026V5.44995Z" fill="white"/>
</svg>
