<svg width="50" height="50" viewBox="0 0 50 50" fill="none" xmlns="http://www.w3.org/2000/svg">
<path d="M25.6842 0.0103471C38.4978 0.373725 48.7442 10.2739 49.8942 22.7399C51.2817 37.8163 38.8316 50.7792 23.7773 49.9635C9.59113 49.1996 -1.36756 36.6298 0.138609 22.4284C1.48897 9.66577 12.5515 -0.367862 25.6916 0.0103471L25.6842 0.0103471ZM28.4962 45.4991C40.1746 43.5636 47.3938 32.603 45.5167 21.4496C43.6024 10.0959 32.8218 2.5614 21.4847 4.4821C10.2886 6.38055 2.66126 17.0075 4.44195 28.198C6.22265 39.3885 16.7733 47.4421 28.4962 45.4991Z" fill="#000A4A"/>
<path d="M27.8581 13.0548C28.4962 12.4541 29.7427 12.3874 30.3585 12.6469C30.9743 12.9065 31.5085 14.6937 30.9224 15.2573L20.6166 25.0017L30.9521 34.7313C31.3898 35.1466 31.0559 36.8374 30.5588 37.1934C29.9727 37.6087 28.6149 37.6087 27.9768 37.008L17.8565 27.5083C16.4913 26.2254 16.2613 24.0303 17.6933 22.6732L27.8581 13.0622L27.8581 13.0548Z" fill="#000A4A"/>
</svg>
