<svg width="67" height="15" viewBox="0 0 67 15" fill="none" xmlns="http://www.w3.org/2000/svg">
<path d="M61.5661 11.7147C61.4805 11.9301 61.6292 12.1698 61.7575 12.2649C62.2179 12.6067 63.3534 11.3628 63.6783 10.9664C65.6622 8.54229 66.7957 5.50841 66.9912 2.37643C67.0309 1.74943 66.926 1.22052 66.6287 0.714876C65.7477 0.401375 64.8882 0.136416 63.937 0.0716929C61.9032 -0.0668544 60.3155 -0.0375268 58.356 0.456996C56.9679 0.806903 55.6592 1.34188 54.5552 2.2217C54.3689 2.37036 54.3444 2.71319 54.4371 2.85174C54.5237 2.98118 54.7701 3.07119 54.986 3.04287C56.8467 2.80219 61.8838 2.19946 63.3463 3.13794C64.8016 4.07237 62.1211 10.3171 61.5651 11.7147H61.5661ZM60.2818 4.9431C59.7849 4.81668 59.459 5.03007 59.0353 5.20401C50.2677 8.79815 40.4898 10.574 30.9563 10.0906C20.3719 9.55459 10.0797 6.61679 0.917924 1.353C0.60425 1.17299 0.146977 1.40559 0.0451349 1.63111C-0.0679101 1.88393 0.0339323 2.2035 0.322146 2.46138C12.4169 13.3298 29.2087 17.4386 45.091 13.5806C50.6913 12.2204 56.0452 10.0855 60.6475 6.68657C60.9846 6.43779 61.1343 6.04743 61.0609 5.68033C60.9958 5.35671 60.6953 5.04827 60.2818 4.9431Z" fill="#FEFEFE"/>
<path d="M60.2818 4.9431C60.6953 5.04827 60.9958 5.35671 61.0609 5.68033C61.1343 6.04743 60.9856 6.43779 60.6475 6.68657C56.0462 10.0865 50.6924 12.2204 45.091 13.5806C29.2087 17.4397 12.4169 13.3308 0.322146 2.46239C0.0349507 2.20451 -0.0679101 1.88494 0.0451349 1.63212C0.146977 1.40559 0.60425 1.17299 0.917924 1.35401C10.0797 6.61679 20.3708 9.55459 30.9553 10.0916C40.4898 10.575 50.2677 8.79916 59.0343 5.20502C59.4579 5.03108 59.7838 4.81769 60.2808 4.94411L60.2818 4.9431Z" fill="url(#paint0_linear_209_149)"/>
<path d="M61.5661 11.7147C62.1232 10.3171 64.8026 4.07136 63.3473 3.13794C61.8848 2.19946 56.8467 2.80219 54.9871 3.04287C54.7701 3.07119 54.5247 2.98118 54.4381 2.85174C54.3455 2.71319 54.3699 2.37036 54.5563 2.2217C55.6602 1.34087 56.9689 0.805892 58.357 0.456996C60.3165 -0.0365156 61.9042 -0.0668544 63.938 0.0716929C64.8882 0.136416 65.7487 0.401375 66.6297 0.714876C66.9271 1.22052 67.0309 1.74943 66.9922 2.37643C66.7967 5.50841 65.6632 8.5433 63.6793 10.9664C63.3544 11.3628 62.2199 12.6067 61.7586 12.2649C61.6302 12.1698 61.4816 11.9291 61.5671 11.7147H61.5661Z" fill="url(#paint1_linear_209_149)"/>
<defs>
<linearGradient id="paint0_linear_209_149" x1="0" y1="7.5" x2="67" y2="7.5" gradientUnits="userSpaceOnUse">
<stop stop-color="#FF332F"/>
<stop offset="1" stop-color="#FF7C41"/>
</linearGradient>
<linearGradient id="paint1_linear_209_149" x1="0" y1="7.5" x2="67" y2="7.5" gradientUnits="userSpaceOnUse">
<stop stop-color="#FF332F"/>
<stop offset="1" stop-color="#FF7C41"/>
</linearGradient>
</defs>
</svg>
