<svg width="29" height="29" viewBox="0 0 29 29" fill="none" xmlns="http://www.w3.org/2000/svg">
<path d="M22.3135 11.7842V17.2949C22.3068 17.9177 21.818 18.3961 21.208 18.374H21.207C20.6711 18.3538 20.2451 17.9385 20.1934 17.4014L20.1885 17.293L20.1787 12.8564L15.5762 15.1553L15.5791 25.6836L26.377 20.0469L26.374 9.75684L22.3135 11.7842ZM2.62305 20.0449L13.418 25.6797L13.4248 15.1553L2.62695 9.75293L2.62305 20.0449ZM3.94629 8.0332L14.5039 13.3184L18.8652 11.125L8.32031 5.8418L3.94629 8.0332ZM10.7041 4.65625L21.2568 9.94043L25.0566 8.03125L14.5078 2.74902L10.7041 4.65625ZM28.5 20.9434L28.4492 21.0469C28.3051 21.3408 28.1138 21.5375 27.8027 21.7002L15.1094 28.3291C14.9319 28.4217 14.7315 28.5006 14.499 28.5C14.2671 28.4993 14.0678 28.4197 13.8926 28.3281L1.06152 21.625C0.676335 21.4243 0.500074 21.0409 0.5 20.665L0.501953 7.92578C0.502064 7.59711 0.676889 7.37447 0.842773 7.24121C0.985158 7.12694 1.16655 7.04572 1.23242 7.0127L14.1182 0.552734L14.2236 0.5H14.7764L14.8828 0.552734L28.0166 7.13086L28.124 7.18555L28.1953 7.28223L28.4023 7.56348L28.5 7.69629V20.9434Z" fill="#000A4A" stroke="#000A4A"/>
</svg>
