<svg preserveAspectRatio="none" width="100%" height="100%" overflow="visible" style="display: block;" viewBox="0 0 30 30" fill="none" xmlns="http://www.w3.org/2000/svg">
<g id="Vector">
<path d="M13.2049 0.111671C21.5591 -0.901145 28.882 5.09721 29.8845 13.1584C30.9096 21.4077 24.9963 28.917 16.7661 29.8947C8.6247 30.862 1.15505 25.06 0.119555 16.8893C-0.907676 8.77435 4.7886 1.13069 13.2049 0.111671ZM28.51 15.9095L26.5733 15.8475C26.2654 15.8372 25.8231 15.4755 25.8107 15.1592C25.7941 14.7748 26.2116 14.4358 26.5733 14.4192L28.5327 14.3324C28.1338 7.27786 22.6174 1.87066 15.7388 1.46554V3.57178C15.7388 3.86736 15.3069 4.30762 14.9741 4.30142C14.7033 4.29522 14.3024 3.85082 14.2941 3.57592L14.2342 1.46554C7.32464 1.89753 1.86606 7.30473 1.46508 14.3159L3.49681 14.4544C3.7779 14.473 4.11687 15.0559 4.03833 15.3018C3.97012 15.5127 3.56088 15.8269 3.29839 15.8393L1.48162 15.9178C1.97767 22.7615 7.39078 28.1109 14.2445 28.5284L14.3168 26.4222C14.3251 26.1534 14.8997 25.8041 15.1601 25.8661C15.3833 25.9199 15.7285 26.3808 15.7326 26.6185L15.774 28.5119C22.545 28.1377 28.0429 22.7739 28.5121 15.9075L28.51 15.9095Z" fill="#47464F"/>
<path d="M21.0755 20.1468C21.3669 20.4383 21.4248 20.9798 21.2615 21.1906C21.09 21.4139 20.41 21.5214 20.2074 21.3188L14.2404 15.3763L14.197 8.84463C14.197 8.55938 14.5256 8.09225 14.7612 8.03644C15.0733 7.96203 15.6562 8.31135 15.6541 8.6462V14.721L21.0734 20.1468H21.0755Z" fill="#47464F"/>
</g>
</svg>
