<svg preserveAspectRatio="none" width="100%" height="100%" overflow="visible" style="display: block;" viewBox="0 0 32 32" fill="none" xmlns="http://www.w3.org/2000/svg">
<g id="Vector">
<path d="M14.1003 31.2915C12.9101 30.3151 12.2256 28.8757 11.1614 28.2531C10.2325 27.7091 8.2929 28.1996 6.86131 28.1881C5.31589 28.1759 4.05388 27.1338 3.85908 25.6104C3.57337 23.3749 4.7162 21.591 3.2487 20.1998C2.26782 19.2692 1.05929 18.5358 0.405374 17.4616C-0.261533 16.366 -0.078191 14.9962 0.754488 14.0419C1.76058 12.8891 2.62381 12.5514 3.53288 11.4711C4.67572 10.1119 3.32968 7.72367 4.00805 5.76631C4.28535 4.96564 4.90719 4.33075 5.70014 4.0305C6.91249 3.57134 8.47548 3.95792 9.96819 4.00835C11.8421 4.07176 12.4265 2.15642 14.0407 0.752187C15.208 -0.26393 16.8603 -0.250178 18.0093 0.791151C18.5486 1.28011 18.9978 1.82026 19.4592 2.39478C20.4019 3.56676 20.9236 4.11531 22.492 3.99307C23.4118 3.92125 24.2903 3.79519 25.194 3.81582C26.5629 3.84714 27.7218 4.67379 28.0671 5.99933C28.3559 7.10865 28.0388 8.62137 27.9861 9.96906C27.9113 11.8928 29.9937 12.4903 31.3123 14.1176C32.2236 15.2422 32.2336 16.7595 31.3161 17.8772C30.0594 19.4083 28.0564 20.0867 28.0007 21.7996C27.9602 23.0563 28.2168 23.8318 28.1863 25.1948C28.1473 26.8886 26.9029 28.1453 25.1917 28.1843C23.7013 28.2179 21.8113 27.6992 20.8404 28.2584C19.7785 28.8696 19.052 30.3586 17.8794 31.3144C16.758 32.2289 15.2462 32.235 14.1003 31.2938V31.2915ZM18.1315 28.6542C18.5753 28.1033 19.0268 27.5815 19.5791 27.146C21.4064 25.7013 23.4706 26.7526 25.4438 26.5035C26.0198 26.4309 26.4338 26.0115 26.5072 25.4431C26.7791 23.3405 25.4912 21.0997 27.6049 19.0507C28.0495 18.6198 28.5148 18.2432 29.0014 17.8497C29.7546 17.2393 30.899 16.2759 30.1022 15.2299C29.336 14.2238 28.2558 13.7233 27.2749 12.5781C25.563 10.5787 26.8655 8.19124 26.4804 6.42411C26.3704 5.91834 25.9671 5.55162 25.44 5.48592C23.4584 5.23991 21.4133 6.31715 19.5356 4.81666C18.3416 3.86242 17.8741 2.76456 16.813 1.9234C15.6923 1.0341 14.7122 2.31227 14.0819 3.08467C13.6755 3.58204 13.2844 4.05495 12.8299 4.50418C10.7741 6.53336 8.29749 5.12149 6.43198 5.51648C5.92321 5.6242 5.56111 6.02301 5.49617 6.5494C5.23797 8.63435 6.45261 10.8293 4.51147 12.8241C3.62226 13.7379 2.51839 14.3949 1.89961 15.2322C1.54057 15.7181 1.55585 16.3439 1.92788 16.8076C2.79035 17.8841 3.8247 18.3089 4.79794 19.4976C6.32274 21.3595 5.2563 23.4559 5.49235 25.44C5.55499 25.9679 5.92855 26.3637 6.43198 26.4745C8.18901 26.8611 10.5839 25.5523 12.5831 27.2728C13.7221 28.2531 14.1958 29.273 15.1904 30.0714C16.376 31.0226 17.4722 29.4739 18.1323 28.6542H18.1315Z" fill="#47464F"/>
<path d="M21.5959 19.8697C21.3064 20.9408 20.3981 21.4924 19.3561 21.455C18.5035 21.4252 17.6747 21.034 17.3485 20.2127C16.9948 19.3234 16.9848 18.3218 17.2484 17.4112C17.5547 16.3538 18.5287 15.8159 19.5944 15.8954C20.5249 15.9642 21.2972 16.4623 21.5707 17.3867C21.8014 18.1652 21.8213 19.037 21.5967 19.8697H21.5959ZM19.9092 17.6686C19.8603 17.389 19.6181 17.2034 19.3973 17.2049C18.5807 17.2087 18.8007 19.1286 18.8931 19.6581C18.9436 19.9453 19.1521 20.1386 19.3958 20.1356C20.2117 20.1249 19.9978 18.1736 19.9092 17.6686Z" fill="#47464F"/>
<path d="M14.7397 14.6126C14.4333 15.5997 13.5449 16.0849 12.5716 16.0803C11.5419 16.0749 10.6695 15.5126 10.4006 14.4957C10.2111 13.7799 10.2149 13.0067 10.3586 12.2855C10.5778 11.18 11.4716 10.5382 12.5671 10.5344C13.5617 10.5314 14.4433 11.0112 14.7397 12.0028C14.9887 12.8363 15.0109 13.7394 14.7397 14.6126ZM13.0751 12.2725C13.0262 12.0296 12.8016 11.86 12.6022 11.8561C12.3837 11.8515 12.1507 12.0013 12.0965 12.2374C11.962 12.8226 11.7382 14.7853 12.6007 14.7593C13.3906 14.7356 13.1851 12.8195 13.0751 12.2725Z" fill="#47464F"/>
<path d="M14.1331 21.4115C13.5434 21.4565 13.0323 21.4756 12.4792 21.3763L17.9199 10.568C18.4562 10.5245 18.9611 10.523 19.5516 10.5818L14.1339 21.4115H14.1331Z" fill="#47464F"/>
</g>
</svg>
