<svg preserveAspectRatio="none" width="100%" height="100%" overflow="visible" style="display: block;" viewBox="0 0 29 30" fill="none" xmlns="http://www.w3.org/2000/svg">
<g id="Vector">
<path d="M28.1794 25.4376C29.2057 26.4975 29.2826 28.0577 28.3353 29.1384C27.4303 30.1711 25.7804 30.3403 24.7618 29.2904L19.6389 24.0099L20.1052 23.5011L19.2106 22.5924C14.0461 26.4825 6.93581 25.5343 2.87447 20.5907C-1.20698 15.6228 -0.908316 8.23967 3.55563 3.64153C8.00641 -0.941564 15.1202 -1.23683 19.9098 2.97288C24.714 7.19477 25.5926 14.5678 21.8307 19.8934L22.7287 20.7885L23.2165 20.3134L28.1794 25.4376ZM11.2314 1.06582C5.05863 1.56534 0.524 7.17183 1.03193 13.4627C1.53986 19.7537 6.89354 24.4743 12.9873 23.9677C19.1018 23.4595 23.6683 17.9204 23.1736 11.5872C22.6851 5.32426 17.3875 0.567739 11.2314 1.06582ZM20.8079 22.7916L22.0462 21.4987L21.2389 20.6839L19.9978 21.9674L20.8079 22.7916ZM25.4936 28.6282C26.1269 29.2782 27.167 29.0288 27.6569 28.4347C28.1725 27.8097 28.1787 26.8515 27.5862 26.2381L23.2089 21.7087L20.9984 24.0164L25.4936 28.6282Z" fill="#47464F"/>
<path d="M11.2348 2.07274C16.8463 1.57179 21.7267 5.90978 22.2007 11.6145C22.6747 17.3191 18.5468 22.4634 12.9727 22.9593C7.41464 23.4545 2.51344 19.2104 2.0069 13.4613C1.50105 7.72797 5.5915 2.57656 11.2348 2.07274ZM11.2335 3.06819C6.12853 3.57201 2.46286 8.27837 2.96871 13.4613C3.47594 18.6593 7.95721 22.4713 12.9894 21.9624C18.0215 21.4536 21.7288 16.8089 21.2361 11.5887C20.7497 6.43868 16.3113 2.56653 11.2335 3.06819Z" fill="#47464F"/>
</g>
</svg>
