<svg preserveAspectRatio="none" width="100%" height="100%" overflow="visible" style="display: block;" viewBox="0 0 30 29" fill="none" xmlns="http://www.w3.org/2000/svg">
<path id="Vector" d="M15 3.73777C9.10324 3.73777 4.30582 8.56566 4.30582 14.4999C4.30582 20.4342 9.10324 25.2621 15 25.2621C20.8968 25.2621 25.6942 20.4342 25.6942 14.4999C25.6942 8.56555 20.8968 3.73777 15 3.73777ZM15 24.3786C9.58787 24.3786 5.18473 19.947 5.18473 14.4999C5.18473 9.05285 9.58787 4.62132 15 4.62132C20.4121 4.62132 24.8153 9.05285 24.8153 14.4999C24.8153 19.947 20.4121 24.3786 15 24.3786ZM19.5663 9.51377C19.3595 9.5132 19.1547 9.55386 18.9636 9.63342C18.7726 9.71297 18.5991 9.82983 18.4533 9.97723L12.7946 15.6658L11.5467 14.4114C11.4009 14.2629 11.2273 14.1448 11.0359 14.0639C10.8445 13.9831 10.6391 13.9411 10.4315 13.9404C10.2239 13.9397 10.0182 13.9803 9.82628 14.0599C9.63435 14.1394 9.45996 14.2563 9.31317 14.4039C9.16637 14.5515 9.05006 14.7268 8.97094 14.9197C8.89181 15.1127 8.85143 15.3195 8.85213 15.5282C8.85282 15.7369 8.89457 15.9433 8.97498 16.1358C9.05538 16.3282 9.17285 16.5027 9.32063 16.6493L11.6815 19.0227C11.9767 19.3194 12.3771 19.4861 12.7946 19.4861C13.2121 19.4861 13.6124 19.3194 13.9076 19.0227L20.6793 12.2151C20.8995 11.9938 21.0494 11.7118 21.1101 11.4049C21.1709 11.0979 21.1397 10.7798 21.0206 10.4906C20.9014 10.2015 20.6997 9.95435 20.4408 9.78047C20.182 9.60659 19.8776 9.51378 19.5663 9.51377ZM20.0579 11.5904L13.2862 18.3978C13.2217 18.4627 13.1451 18.5142 13.0607 18.5493C12.9764 18.5845 12.886 18.6026 12.7947 18.6026C12.7034 18.6026 12.613 18.5845 12.5286 18.5494C12.4443 18.5143 12.3676 18.4628 12.303 18.3979L9.94213 16.0245C9.81264 15.8933 9.74015 15.7158 9.74052 15.531C9.7409 15.3461 9.81411 15.1689 9.94413 15.0382C10.0742 14.9075 10.2504 14.8339 10.4343 14.8335C10.6182 14.8331 10.7947 14.906 10.9253 15.0361L12.4839 16.603C12.5663 16.6858 12.678 16.7323 12.7946 16.7323C12.9111 16.7323 13.0229 16.6858 13.1053 16.603L19.0748 10.602C19.1393 10.5371 19.216 10.4856 19.3003 10.4505C19.3847 10.4154 19.4751 10.3973 19.5663 10.3973C19.6576 10.3973 19.748 10.4154 19.8324 10.4505C19.9167 10.4857 19.9934 10.5371 20.0579 10.602C20.1225 10.6669 20.1737 10.744 20.2086 10.8288C20.2435 10.9136 20.2615 11.0044 20.2615 11.0962C20.2615 11.188 20.2435 11.2789 20.2086 11.3636C20.1736 11.4484 20.1225 11.5255 20.0579 11.5904ZM28.9108 11.7203C28.5834 11.1972 28.2741 10.7032 28.1154 10.2114C27.9468 9.6886 27.9043 9.08631 27.8594 8.44857C27.7894 7.4561 27.7171 6.42983 27.1358 5.62609C26.5484 4.81376 25.5963 4.42741 24.6756 4.05396C24.0907 3.81658 23.5382 3.59239 23.104 3.27443C22.6781 2.96236 22.3007 2.50704 21.9013 2.02497C21.2615 1.25287 20.6 0.454493 19.6363 0.139537C18.7144 -0.161695 17.7311 0.083814 16.7804 0.321312C16.1815 0.470868 15.5623 0.625548 15 0.625548C14.4377 0.625548 13.8184 0.470868 13.2196 0.321312C12.2688 0.0838729 11.2856 -0.161695 10.3637 0.139596C9.39996 0.454493 8.73844 1.25287 8.09871 2.02497C7.69928 2.50704 7.32199 2.96236 6.89596 3.27443C6.46178 3.59239 5.90924 3.81658 5.3243 4.0539C4.40361 4.42747 3.45164 4.81376 2.86418 5.62609C2.28293 6.42989 2.21063 7.4561 2.14061 8.44862C2.09566 9.08631 2.05318 9.68866 1.88455 10.2114C1.72588 10.7032 1.41662 11.1972 1.08926 11.7204C0.553711 12.5759 0 13.4606 0 14.4999C0 15.5393 0.553711 16.424 1.08926 17.2796C1.41662 17.8027 1.72588 18.2967 1.88455 18.7885C2.05318 19.3113 2.09566 19.9136 2.14061 20.5513C2.21063 21.5438 2.28293 22.57 2.86418 23.3738C3.45164 24.1861 4.40367 24.5724 5.32436 24.9459C5.9093 25.1833 6.46178 25.4075 6.89596 25.7255C7.32193 26.0375 7.69928 26.4928 8.09865 26.9749C8.7385 27.747 9.40002 28.5454 10.3637 28.8603C11.2856 29.1616 12.2688 28.916 13.2196 28.6786C13.8185 28.529 14.4377 28.3743 15 28.3743C15.5623 28.3743 16.1816 28.529 16.7804 28.6786C17.4165 28.8374 18.0668 28.9998 18.7038 28.9998C19.02 29.0031 19.3348 28.956 19.6363 28.8603C20.6 28.5454 21.2616 27.747 21.9013 26.9749C22.3007 26.4929 22.678 26.0375 23.104 25.7255C23.5382 25.4075 24.0908 25.1833 24.6757 24.946C25.5964 24.5724 26.5484 24.1861 27.1358 23.3738C27.7171 22.57 27.7894 21.5437 27.8594 20.5513C27.9043 19.9136 27.9468 19.3112 28.1154 18.7885C28.2741 18.2967 28.5834 17.8027 28.9107 17.2795C29.4463 16.424 30 15.5393 30 14.4999C30 13.4605 29.4463 12.5759 28.9107 11.7203H28.9108ZM28.1668 16.809C27.8252 17.3549 27.4719 17.9193 27.2794 18.5159C27.0776 19.1412 27.0294 19.8263 26.9827 20.4888C26.9187 21.3972 26.8581 22.2552 26.4249 22.8542C25.9857 23.4616 25.1896 23.7846 24.3468 24.1266C23.738 24.3736 23.1085 24.629 22.5865 25.0114C22.0724 25.3879 21.6421 25.9072 21.2259 26.4094C20.6403 27.1163 20.0871 27.784 19.3647 28.02C18.6821 28.2432 17.8613 28.0381 16.9923 27.8211C16.3421 27.6587 15.6698 27.4908 15 27.4908C14.3302 27.4908 13.6579 27.6587 13.0077 27.8211C12.1388 28.0381 11.3181 28.2431 10.6354 28.02C9.91289 27.784 9.35971 27.1163 8.774 26.4094C8.35787 25.9072 7.92756 25.3879 7.41352 25.0114C6.8915 24.629 6.26203 24.3736 5.6533 24.1266C4.81043 23.7846 4.01432 23.4616 3.5751 22.8542C3.14186 22.2552 3.08133 21.3972 3.01729 20.4888C2.97064 19.8263 2.92236 19.1412 2.72057 18.5159C2.52814 17.9194 2.17482 17.3549 1.83316 16.809C1.34238 16.025 0.878906 15.2844 0.878906 14.4999C0.878906 13.7154 1.34238 12.9749 1.83316 12.1909C2.17477 11.645 2.52814 11.0805 2.72057 10.484C2.92236 9.85865 2.97064 9.17361 3.01734 8.51112C3.08133 7.60271 3.14186 6.74473 3.5751 6.14562C4.01432 5.53821 4.81043 5.21524 5.65324 4.87331C6.26203 4.62627 6.8915 4.37086 7.41352 3.98858C7.92756 3.61201 8.35787 3.09266 8.77406 2.59045C9.35971 1.88361 9.91295 1.21588 10.6353 0.979852C11.3179 0.756726 12.1387 0.961769 13.0077 1.17877C13.6579 1.34117 14.3302 1.5091 15 1.5091C15.6698 1.5091 16.3421 1.34117 16.9923 1.17883C17.8613 0.961769 18.682 0.756785 19.3646 0.979852C20.0871 1.21588 20.6403 1.88361 21.226 2.59051C21.6421 3.09272 22.0724 3.61201 22.5865 3.98852C23.1085 4.37086 23.738 4.62627 24.3467 4.87325C25.1896 5.21524 25.9857 5.53827 26.4249 6.14562C26.8581 6.74467 26.9187 7.60271 26.9827 8.51106C27.0294 9.17361 27.0776 9.85865 27.2794 10.484C27.4719 11.0805 27.8252 11.645 28.1668 12.1909C28.6576 12.9749 29.1211 13.7155 29.1211 14.4999C29.1211 15.2845 28.6576 16.025 28.1668 16.809Z" fill="#47464F"/>
</svg>
